<svg id="78ca4067-44d4-43e4-86ef-188740c29528" data-name="Layer 1" xmlns="http://www.w3.org/2000/svg" viewBox="0 0 22 17.29"><defs><style>.a30dc66f-7925-4feb-ac07-0fc2d1afc9b1{fill:#ffc0e9;}</style></defs><title>envelope-small</title><path class="a30dc66f-7925-4feb-ac07-0fc2d1afc9b1" d="M22,2a3.24,3.24,0,0,1-.6,1.85,5.84,5.84,0,0,1-1.5,1.51l-5.75,4-.52.38-.66.47-.64.4a3.7,3.7,0,0,1-.71.33A1.94,1.94,0,0,1,11,11h0a1.94,1.94,0,0,1-.61-.11,3.7,3.7,0,0,1-.71-.33L9,10.16l-.66-.47-.52-.37L4.63,7.08,2.11,5.33A6.11,6.11,0,0,1,.67,3.91,2.87,2.87,0,0,1,0,2.23,2.48,2.48,0,0,1,.51.64,1.75,1.75,0,0,1,2,0H20a1.9,1.9,0,0,1,1.38.58A1.88,1.88,0,0,1,22,2Zm0,3.61v9.75a2,2,0,0,1-2,2H2a1.89,1.89,0,0,1-1.39-.58A1.89,1.89,0,0,1,0,15.32V5.57A6.52,6.52,0,0,0,1.24,6.64q4.44,3,6.1,4.24.7.52,1.14.8a7,7,0,0,0,1.16.59,3.54,3.54,0,0,0,1.35.3h0a3.54,3.54,0,0,0,1.35-.3,7,7,0,0,0,1.16-.59q.44-.29,1.14-.8,2.09-1.51,6.11-4.24A6.77,6.77,0,0,0,22,5.57Z"/></svg>