<svg id="c004893c-db78-453f-a192-03de382e5225" data-name="Layer 1" xmlns="http://www.w3.org/2000/svg" viewBox="0 0 18.86 18.02"><defs><style>.\32 782bdf4-26e9-4e85-b40f-69736037e226{fill:#ffc0e9;}</style></defs><title>social--in</title><path class="2782bdf4-26e9-4e85-b40f-69736037e226" d="M4.79,4.09a1.94,1.94,0,0,1-.62,1.5,2.31,2.31,0,0,1-1.66.6h0a2.21,2.21,0,0,1-1.62-.6,2,2,0,0,1-.61-1.5,2,2,0,0,1,.63-1.5A2.31,2.31,0,0,1,2.53,2a2.24,2.24,0,0,1,1.63.6A2,2,0,0,1,4.79,4.09ZM4.53,7.84V20H.48V7.84ZM19.1,13v7h-4V13.5a3.56,3.56,0,0,0-.5-2A1.75,1.75,0,0,0,13,10.75a2,2,0,0,0-1.29.42,2.61,2.61,0,0,0-.78,1,3,3,0,0,0-.14,1V20h-4q0-4.9,0-7.94t0-3.63V7.84h4V9.61h0a5.38,5.38,0,0,1,.5-.69A5.23,5.23,0,0,1,12,8.29,3.18,3.18,0,0,1,13,7.75a4.86,4.86,0,0,1,1.41-.19A4.36,4.36,0,0,1,17.83,9,5.84,5.84,0,0,1,19.1,13Z" transform="translate(-0.25 -1.99)"/></svg>