<svg id="802b5ea2-9967-4d99-9a89-6a44f430d2c0" data-name="Layer 1" xmlns="http://www.w3.org/2000/svg" viewBox="0 0 18.19 22"><defs><style>.c149cf18-ed69-46bc-a738-8a97c91f1b05{fill:#ffc0e9;}</style></defs><title>social--yt</title><path class="c149cf18-ed69-46bc-a738-8a97c91f1b05" d="M18.77,15.67a21.26,21.26,0,0,1-.32,4.3,2.33,2.33,0,0,1-.71,1.22,2.15,2.15,0,0,1-1.25.56A65.64,65.64,0,0,1,9.67,22a65.63,65.63,0,0,1-6.81-.26,2.18,2.18,0,0,1-1.26-.56A2.24,2.24,0,0,1,.9,20a20.82,20.82,0,0,1-.32-4.3,21.27,21.27,0,0,1,.32-4.3,2.34,2.34,0,0,1,.71-1.21,2.23,2.23,0,0,1,1.26-.58q2.25-.25,6.8-.25t6.81.25a2.3,2.3,0,0,1,2,1.79A20.83,20.83,0,0,1,18.77,15.67ZM4.46,12.61H5.77V11.45H1.94v1.15H3.23v7H4.46ZM6.52,0H7.77L6.29,4.9V8.23H5.06V4.9a20.75,20.75,0,0,0-.75-2.6Q3.86,1,3.51,0h1.3l.87,3.23ZM8,19.59H9.08V13.53H8v4.64q-.37.52-.7.52T7,18.43A3.45,3.45,0,0,1,7,18V13.53H5.93v4.8a3,3,0,0,0,.1.9.66.66,0,0,0,.71.45A1.8,1.8,0,0,0,8,18.93Zm3.07-15.5V6.24a2.42,2.42,0,0,1-.34,1.45,1.51,1.51,0,0,1-1.3.63,1.52,1.52,0,0,1-1.29-.63,2.45,2.45,0,0,1-.34-1.45V4.09a2.39,2.39,0,0,1,.34-1.44A1.52,1.52,0,0,1,9.42,2a1.51,1.51,0,0,1,1.3.63A2.39,2.39,0,0,1,11.06,4.09ZM9.94,6.45V3.87Q9.94,3,9.42,3t-.53.85V6.45q0,.86.53.86T9.94,6.45Zm3.32,11.33V15.36a4.38,4.38,0,0,0-.11-1.21.85.85,0,0,0-.87-.69,1.48,1.48,0,0,0-1.14.66V11.45H10v8.14h1.09V19a1.52,1.52,0,0,0,1.14.67.85.85,0,0,0,.87-.67A4.53,4.53,0,0,0,13.26,17.78Zm-1.09-2.5v2.59q0,.82-.48.82a.79.79,0,0,1-.55-.27v-3.7a.79.79,0,0,1,.55-.27Q12.17,14.45,12.17,15.27Zm3-13.17V8.23H14.06V7.55a1.77,1.77,0,0,1-1.26.76.68.68,0,0,1-.72-.45,3.15,3.15,0,0,1-.1-.92V2.1h1.12V6.61a3.38,3.38,0,0,0,0,.43q0,.27.26.27c.22,0,.45-.18.7-.53V2.1Zm2.23,15.55V17.5H16.29a6.24,6.24,0,0,1,0,.75.47.47,0,0,1-.49.44q-.57,0-.56-.85V16.77h2.2V15.51a2.43,2.43,0,0,0-.33-1.42,1.68,1.68,0,0,0-2.61,0,2.37,2.37,0,0,0-.34,1.42v2.12a2.31,2.31,0,0,0,.36,1.42,1.58,1.58,0,0,0,1.33.63,1.52,1.52,0,0,0,1.58-1.31A5.55,5.55,0,0,0,17.41,17.65Zm-1.09-2.37v.56h-1.1v-.56q0-.83.55-.83T16.32,15.29Z" transform="translate(-0.58)"/></svg>