<svg id="80251e27-eb92-46dd-8c02-f53c8b053ae5" data-name="Layer 1" xmlns="http://www.w3.org/2000/svg" viewBox="0 0 119.79 21.21"><defs><style>.\35 dd1a8a9-4ffc-47ae-9df5-f8327bff3d7c{fill:#ffc0e9}.b385b585-2072-4de3-9c9a-8275a58ea75a{fill:none;stroke:#ffc0e9;stroke-miterlimit:10}</style></defs><title>envelope</title><path class="5dd1a8a9-4ffc-47ae-9df5-f8327bff3d7c" d="M49 10.54h-4.73v9h5.3L49.36 21h-6.6V.25h6.51v1.4h-5v7.5H49zM62.66 11.66c0-4 .09-7.88.16-10-.56 3.41-2.45 13-3.69 19.29h-1.59c-1-5.3-2.95-15.66-3.44-19.29H54c.06 2.39.19 7.1.19 10.64V21h-1.46V.25H55c1.36 6.73 3.1 15.47 3.38 17.92.31-2.33 2.23-11.63 3.57-17.92h2.23V21h-1.52zM70 13.61L68.79 21h-1.52L70.71.25h2.2L76.51 21H74.9l-1.24-7.35zm3.47-1.4C72.54 6.95 72 3.29 71.8 1.58h-.06c-.06 1.52-.9 6.36-1.55 10.63zM81.16.25V21h-1.52V.25zM85.66.25h1.52v19.31h5.21L92.17 21h-6.51zM102.12.25v16.34c0 1.83.68 3.22 2.45 3.22S107 18.6 107 16.62V.25h1.55v16.28c0 3.16-1.43 4.68-4 4.68s-3.94-1.49-3.94-4.62V.25zM113.43 15.32v1.15c0 2.23.81 3.41 2.42 3.41s2.42-1 2.42-3.94c0-2.54-.56-3.66-2.73-5.33s-3.29-2.7-3.29-5.74c0-2.54.78-4.9 3.69-4.87 2.57 0 3.53 1.61 3.53 4.5v.87H118v-.84c0-1.89-.4-3.19-2-3.19s-2.14 1.49-2.14 3.29c0 2.26.46 3 2.42 4.5 2.73 2.11 3.6 3.22 3.6 6.63 0 2.91-.68 5.46-3.94 5.46-3 0-3.94-2-3.94-4.74v-1.16zM27.78 1.26v18.69H1V1.26h26.78m1-1H0v20.69h28.78V.26z"/><path class="b385b585-2072-4de3-9c9a-8275a58ea75a" d="M.93 1.24L12.89 14a2.07 2.07 0 0 0 3 0l12-12.71M.93 19.92l9.03-9.03M27.9 19.92l-9.03-9.03"/></svg>