<svg id="Layer_1" data-name="Layer 1" xmlns="http://www.w3.org/2000/svg" viewBox="0 0 778.14 66.25"><defs><style>.cls-1{fill:#231f20}</style></defs><path class="cls-1" d="M13.44 62.37v-8.6h7.62l.27-.36V15h-9.95L8.51 27.06H0V6.36h54.66v20.7h-8.51l-3-12.1h-9.81v38.45l.18.36h7.71v8.6zM101.72 62.37l-12.1-21.6h-7.26v12.64l.27.36h5.65v8.6H64.36v-8.6h5.91l.18-.36V15.32l-.18-.32h-5.91V6.36h27.06c16 0 22 5.38 22 16 0 8.87-4.21 14.51-11.38 16.76l8.43 14.7h6.09v8.6zm-11.47-30c7.17 0 10.39-3.23 10.39-9.59C100.65 17.47 97 15 89.8 15h-7.44v17.35zM125.75 62.37v-8.6h5.91l.18-.36V15.32l-.18-.36h-5.91v-8.6h50.18v19.45h-8.6l-2.69-10.93h-20.88V30h8.87l1.07-6.36h7.8L160 44.18h-7.79v-6h-8.43v15.67h20.52L168 43.1h9l-1.88 19.27zM213.94 62.37v-8.6h5.92l.18-.36V15.32l-.18-.36h-5.92v-8.6h28.32c14.25 0 19 5.47 19 13.53 0 7-2.78 11.11-8.87 13.17v.63c7.53 1.52 10.75 6.9 10.75 13.26 0 9.32-5.91 15.41-19.9 15.41zm21.6-31.81c9.32 0 13.08-2.24 13.08-8.6 0-4.75-3-7.08-10.39-7.08H232v15.68zm4.3 23.3c7.71 0 10.57-3 10.57-7.89 0-5.11-2.6-7.8-12.9-7.8H232v15.68zM301.32 5.11c18.37 0 26.8 9.77 26.8 28 0 20.16-9.23 30.47-28 30.47-18.37 0-26.88-9.68-26.88-28-.05-20.17 9.17-30.47 28.08-30.47zm-1.25 9c-8.51 0-14.16 6.45-14.16 20.25 0 15.15 4.75 20.16 15.33 20.16 8.6 0 14.16-6.36 14.16-20.07-.01-15.18-4.76-20.29-15.33-20.29zM375.27 62.37l-12.1-21.6h-7.26v12.64l.27.36h5.65v8.6H337.9v-8.6h5.92l.18-.36V15.32l-.18-.36h-5.92v-8.6H365c16 0 22 5.38 22 16 0 8.87-4.21 14.51-11.38 16.76L384 53.77h6.09v8.6zm-11.47-30c7.17 0 10.39-3.23 10.39-9.59 0-5.29-3.67-7.79-10.84-7.79h-7.44v17.36zM399.29 62.37v-8.6h5.92l.18-.36V15.32l-.18-.36h-5.92v-8.6h26.53c19.27 0 27.78 8.6 27.78 27 0 19.36-9 29-28.59 29zm25-8.6c10.58 0 16.58-6.18 16.58-19.63 0-14.52-5.56-19.18-17.38-19.18h-6.09v38.8zM463.11 62.37v-8.6H469l.18-.36V15.32L469 15h-5.91V6.36h50.18v19.45h-8.6L502 14.87h-20.88V30H490l1.07-6.36h7.8l-1.53 20.52h-7.79v-6h-8.43v15.69h20.52l3.76-10.75h9l-1.88 19.27zM563.75 62.82l-22.31-43.91h-1v34.5l.18.36h6.1v8.6h-22.31v-8.6h5.92l.18-.36V15.32l-.18-.36h-5.92v-8.6h22.67l21.51 42.47h1.08V15.32l-.27-.32h-6.1V6.36h22.4V15h-5.92l-.27.36v47.46zM704.74 60.49c-4 2-9.41 3.14-16 3.14-18.28 0-26.88-9.23-26.88-28 0-20.7 9.32-30.56 28.23-30.56A40.53 40.53 0 01702.95 7l8.51-2.51v20.42h-8.51l-2.24-8.6c-2.69-1.43-6.09-2.15-11-2.15-9.86 0-15.15 5.74-15.15 20 0 15.59 4.57 20.43 16.4 20.43 3.86 0 8-1 10.67-2.87l2.51-8.42h8.42l-1.61 19zM751.35 5.11c18.37 0 26.8 9.77 26.8 28 0 20.16-9.23 30.47-28 30.47-18.37 0-26.88-9.68-26.88-28-.06-20.17 9.17-30.47 28.08-30.47zm-1.25 9c-8.51 0-14.16 6.45-14.16 20.25 0 15.15 4.75 20.16 15.33 20.16 8.6 0 14.16-6.36 14.16-20.07-.01-15.18-4.76-20.29-15.34-20.29z"/><path fill="#ffc0e9" d="M623.96 66.25h-9.56L648.43 0l9.56.08-34.03 66.17z"/></svg>