<svg id="8a1e7da8-fc96-4f37-b1ad-f2b71098ace4" data-name="Layer 1" xmlns="http://www.w3.org/2000/svg" viewBox="0 0 50.75 21.21"><defs><style></style></defs><path class="284db78f-f2da-4257-a7c7-9078a4a259b6" d="M0 .25h3.22c2.95 0 4.25 1.52 4.25 4.65v1.27c0 2.92-.71 5.24-4.37 5.24H1.52V21H0zM1.52 10H3c2.61 0 3-1.57 3-3.83V5c0-1.77-.43-3.41-2.82-3.41H1.52zM11.1.25h3.07c3.1 0 4.4 1.4 4.4 4.62v1.05c0 2.54-.78 3.94-2.11 4.37 1.36.43 1.92 1.52 1.92 4.25A52.07 52.07 0 0018.6 21h-1.49a52.43 52.43 0 01-.22-6.26c0-2.79-.43-3.69-2.6-3.69h-1.67V21H11.1zm1.52 9.43h1.8C16.59 9.67 17 8.19 17 6V4.93c0-2.11-.65-3.35-2.91-3.35h-1.47zM28.71 10.54H24v9h5.3L29.08 21h-6.6V.25H29v1.4h-5v7.5h4.71zM33.39 15.32v1.15c0 2.23.81 3.41 2.42 3.41s2.42-1 2.42-3.94c0-2.54-.56-3.66-2.73-5.33s-3.29-2.7-3.29-5.74C32.21 2.33 33 0 35.9 0c2.57 0 3.53 1.61 3.53 4.5v.87h-1.52v-.84c0-1.89-.4-3.19-2-3.19s-2.14 1.49-2.14 3.29c0 2.26.47 3 2.42 4.5 2.73 2.11 3.6 3.22 3.6 6.64 0 2.91-.68 5.46-3.94 5.46-3 0-3.94-2-3.94-4.74v-1.17zM44.39 15.32v1.15c0 2.23.81 3.41 2.42 3.41s2.42-1 2.42-3.94c0-2.54-.56-3.66-2.73-5.33s-3.29-2.7-3.29-5.74C43.21 2.33 44 0 46.9 0c2.57 0 3.53 1.61 3.53 4.5v.87h-1.51v-.84c0-1.89-.4-3.19-2-3.19s-2.14 1.49-2.14 3.29c0 2.26.46 3 2.42 4.5 2.73 2.11 3.6 3.22 3.6 6.64 0 2.91-.68 5.46-3.94 5.46-3 0-3.94-2-3.94-4.74v-1.17z"/></svg>