<svg data-name="Layer 1" xmlns="http://www.w3.org/2000/svg" viewBox="0 0 18.86 18.86"><path class="9baf4599-5222-489f-8f1a-c74200cde53c" d="M18.85 9.43q0 2.81-.06 3.89a5.76 5.76 0 01-1.52 4 5.76 5.76 0 01-4 1.52q-1.08.06-3.89.06t-3.89-.06a5.76 5.76 0 01-4-1.52 5.76 5.76 0 01-1.52-4Q0 12.24 0 9.43t.06-3.89a5.76 5.76 0 011.52-4 5.76 5.76 0 014-1.52q1.08-.06 3.89-.06t3.89.06a5.76 5.76 0 014 1.52 5.76 5.76 0 011.52 4q-.03 1.08-.03 3.89zm-8.49-7.74H6.01a9.9 9.9 0 00-1.26.16 5 5 0 00-.88.23 3.21 3.21 0 00-1.8 1.79 4.89 4.89 0 00-.23.88 9.73 9.73 0 00-.09 1.26V12.84a9.69 9.69 0 00.12 1.26 4.85 4.85 0 00.23.88 3.22 3.22 0 001.79 1.79 5 5 0 00.88.23 9.71 9.71 0 001.26.12H12.86a9.71 9.71 0 001.26-.12 5 5 0 00.88-.23 3.22 3.22 0 001.75-1.78 4.93 4.93 0 00.23-.88 9.71 9.71 0 00.12-1.26v-1.18-1.29-.94-.94-1.3-1.18a9.74 9.74 0 00-.12-1.26 5 5 0 00-.23-.89 3.21 3.21 0 00-1.79-1.79 5 5 0 00-.88-.23 9.9 9.9 0 00-1.26-.12h-1.18zm2.49 4.32a4.66 4.66 0 011.41 3.42 4.82 4.82 0 01-4.84 4.84 4.82 4.82 0 01-4.83-4.84 4.82 4.82 0 014.83-4.84 4.66 4.66 0 013.43 1.42zm-1.2 5.65a3.14 3.14 0 000-4.44 3.14 3.14 0 00-4.44 0 3.14 3.14 0 000 4.44 3.14 3.14 0 004.44 0zm3.61-8.05a1.12 1.12 0 11-.8-.33 1.09 1.09 0 01.8.32z" fill="#ffc0e9"/></svg>