<svg id="31f5132f-c43f-4c09-a091-f04be49cb5e2" data-name="Layer 1" xmlns="http://www.w3.org/2000/svg" viewBox="0 0 18.86 18.86"><defs><style>.\39 baf4599-5222-489f-8f1a-c74200cde53c{fill:#ffc0e9}</style></defs><title>social--insta</title><path class="9baf4599-5222-489f-8f1a-c74200cde53c" d="M19.1 11q0 2.81-.06 3.89a5.76 5.76 0 0 1-1.52 4 5.76 5.76 0 0 1-4 1.52q-1.08.06-3.89.06t-3.89-.06a5.76 5.76 0 0 1-4-1.52 5.76 5.76 0 0 1-1.52-4Q.25 13.81.25 11t.06-3.89a5.76 5.76 0 0 1 1.52-4 5.76 5.76 0 0 1 4-1.52q1.08-.06 3.89-.06t3.89.06a5.76 5.76 0 0 1 4 1.52 5.76 5.76 0 0 1 1.52 4Q19.1 8.19 19.1 11zm-8.49-7.74H6.26A9.9 9.9 0 0 0 5 3.42a5 5 0 0 0-.88.23 3.21 3.21 0 0 0-1.8 1.79 4.89 4.89 0 0 0-.23.88A9.73 9.73 0 0 0 2 7.58V14.41a9.69 9.69 0 0 0 .12 1.26 4.85 4.85 0 0 0 .23.88 3.22 3.22 0 0 0 1.79 1.79 5 5 0 0 0 .88.23 9.71 9.71 0 0 0 1.26.12H13.11a9.71 9.71 0 0 0 1.26-.12 5 5 0 0 0 .88-.23A3.22 3.22 0 0 0 17 16.56a4.93 4.93 0 0 0 .23-.88 9.71 9.71 0 0 0 .12-1.26v-1.18-1.29-.94-.94-1.3-1.18a9.74 9.74 0 0 0-.12-1.26 5 5 0 0 0-.23-.89 3.21 3.21 0 0 0-1.79-1.79 5 5 0 0 0-.88-.23 9.9 9.9 0 0 0-1.26-.12h-1.18zm2.49 4.32A4.66 4.66 0 0 1 14.51 11a4.82 4.82 0 0 1-4.84 4.84A4.82 4.82 0 0 1 4.84 11a4.82 4.82 0 0 1 4.83-4.84 4.66 4.66 0 0 1 3.43 1.42zm-1.2 5.65a3.14 3.14 0 0 0 0-4.44 3.14 3.14 0 0 0-4.44 0 3.14 3.14 0 0 0 0 4.44 3.14 3.14 0 0 0 4.44 0zm3.61-8.05a1.12 1.12 0 1 1-.8-.33 1.09 1.09 0 0 1 .8.32z" transform="translate(-.25 -1.57)"/></svg>