<svg id="c004893c-db78-453f-a192-03de382e5225" data-name="Layer 1" xmlns="http://www.w3.org/2000/svg" viewBox="0 0 18.86 18.02"><defs><style>.\32 782bdf4-26e9-4e85-b40f-69736037e226{fill:#ffc0e9}</style></defs><title>social--in</title><path class="2782bdf4-26e9-4e85-b40f-69736037e226" d="M4.79 4.09a1.94 1.94 0 0 1-.62 1.5 2.31 2.31 0 0 1-1.66.6 2.21 2.21 0 0 1-1.62-.6 2 2 0 0 1-.61-1.5 2 2 0 0 1 .63-1.5A2.31 2.31 0 0 1 2.53 2a2.24 2.24 0 0 1 1.63.6 2 2 0 0 1 .63 1.49zm-.26 3.75V20H.48V7.84zM19.1 13v7h-4v-6.5a3.56 3.56 0 0 0-.5-2 1.75 1.75 0 0 0-1.6-.75 2 2 0 0 0-1.29.42 2.61 2.61 0 0 0-.78 1 3 3 0 0 0-.14 1V20h-4v-7.94-4.22h4v1.77a5.38 5.38 0 0 1 .5-.69 5.23 5.23 0 0 1 .71-.63 3.18 3.18 0 0 1 1-.54 4.86 4.86 0 0 1 1.41-.19A4.36 4.36 0 0 1 17.83 9a5.84 5.84 0 0 1 1.27 4z" transform="translate(-.25 -1.99)"/></svg>