<svg data-name="Layer 1" xmlns="http://www.w3.org/2000/svg" viewBox="0 0 18.86 18.02"><path class="2782bdf4-26e9-4e85-b40f-69736037e226" d="M4.54 2.1a1.94 1.94 0 01-.62 1.5 2.31 2.31 0 01-1.66.6 2.21 2.21 0 01-1.62-.6 2 2 0 01-.61-1.5A2 2 0 01.66.6 2.31 2.31 0 012.28.01a2.24 2.24 0 011.63.6 2 2 0 01.63 1.49zm-.26 3.75v12.16H.23V5.85zm14.57 5.16v7h-4v-6.5a3.56 3.56 0 00-.5-2 1.75 1.75 0 00-1.6-.75 2 2 0 00-1.29.42 2.61 2.61 0 00-.78 1 3 3 0 00-.14 1v6.83h-4v-7.94-4.22h4v1.77a5.38 5.38 0 01.5-.69 5.23 5.23 0 01.71-.63 3.18 3.18 0 011-.54 4.86 4.86 0 011.41-.19 4.36 4.36 0 013.42 1.44 5.84 5.84 0 011.27 4z" fill="#ffc0e9"/></svg>