<svg id="fdbb6d6a-b78a-4062-976f-8ac42c736991" data-name="Layer 1" xmlns="http://www.w3.org/2000/svg" viewBox="0 0 19.35 15.71"><defs><style>.dee89313-7ad3-4d91-b4c8-7e11f40a860c{fill:#ffc0e9}</style></defs><title>social--tw</title><path class="dee89313-7ad3-4d91-b4c8-7e11f40a860c" d="M19.35 5a8.31 8.31 0 0 1-2 2.05v.52a11.28 11.28 0 0 1-.47 3.19 11.53 11.53 0 0 1-1.42 3.05 12 12 0 0 1-2.26 2.58 10.09 10.09 0 0 1-3.17 1.79 11.58 11.58 0 0 1-4 .67A11 11 0 0 1 0 17.08a8.38 8.38 0 0 0 1 0 7.77 7.77 0 0 0 4.92-1.69 4 4 0 0 1-3.71-2.75 5 5 0 0 0 .75.06 4.12 4.12 0 0 0 1-.13 3.9 3.9 0 0 1-2.28-1.37 3.83 3.83 0 0 1-.9-2.52 3.94 3.94 0 0 0 1.79.5 4 4 0 0 1-1.28-1.42 4 4 0 0 1 .06-3.89A11.24 11.24 0 0 0 5 6.8 11 11 0 0 0 9.53 8a4.33 4.33 0 0 1-.1-.91 3.82 3.82 0 0 1 1.16-2.8 4 4 0 0 1 5.7.09 7.77 7.77 0 0 0 2.52-1 3.85 3.85 0 0 1-1.74 2.19A7.89 7.89 0 0 0 19.35 5z" transform="translate(0 -3.14)"/></svg>