<svg data-name="Layer 1" xmlns="http://www.w3.org/2000/svg" viewBox="0 0 18.19 22"><path d="M18.19 15.67a21.26 21.26 0 0 1-.32 4.3 2.33 2.33 0 0 1-.71 1.22 2.15 2.15 0 0 1-1.25.56 65.64 65.64 0 0 1-6.82.25 65.63 65.63 0 0 1-6.81-.26 2.18 2.18 0 0 1-1.26-.56A2.24 2.24 0 0 1 .32 20 20.82 20.82 0 0 1 0 15.7a21.27 21.27 0 0 1 .32-4.3 2.34 2.34 0 0 1 .71-1.21 2.23 2.23 0 0 1 1.26-.58q2.25-.25 6.8-.25t6.81.25a2.3 2.3 0 0 1 2 1.79 20.83 20.83 0 0 1 .29 4.27zM3.88 12.61h1.31v-1.16H1.36v1.15h1.29v7h1.23zM5.94 0h1.25L5.71 4.9v3.33H4.48V4.9a20.75 20.75 0 0 0-.75-2.6Q3.28 1 2.93 0h1.3l.87 3.23zm1.48 19.59H8.5v-6.06H7.42v4.64q-.37.52-.7.52t-.3-.26a3.45 3.45 0 0 1 0-.43v-4.47H5.35v4.8a3 3 0 0 0 .1.9.66.66 0 0 0 .71.45 1.8 1.8 0 0 0 1.26-.75zm3.07-15.5v2.15a2.42 2.42 0 0 1-.34 1.45 1.51 1.51 0 0 1-1.3.63 1.52 1.52 0 0 1-1.29-.63 2.45 2.45 0 0 1-.34-1.45V4.09a2.39 2.39 0 0 1 .34-1.44A1.52 1.52 0 0 1 8.84 2a1.51 1.51 0 0 1 1.3.63 2.39 2.39 0 0 1 .34 1.46zM9.36 6.45V3.87q0-.87-.52-.87t-.53.85v2.6q0 .86.53.86t.52-.86zm3.32 11.33v-2.42a4.38 4.38 0 0 0-.11-1.21.85.85 0 0 0-.87-.69 1.48 1.48 0 0 0-1.14.66v-2.67H9.42v8.14h1.09V19a1.52 1.52 0 0 0 1.14.67.85.85 0 0 0 .87-.67 4.53 4.53 0 0 0 .16-1.22zm-1.09-2.5v2.59q0 .82-.48.82a.79.79 0 0 1-.55-.27v-3.7a.79.79 0 0 1 .55-.27q.48 0 .48.82zm3-13.17v6.12h-1.11v-.68a1.77 1.77 0 0 1-1.26.76.68.68 0 0 1-.72-.45 3.15 3.15 0 0 1-.1-.92V2.1h1.12v4.51a3.38 3.38 0 0 0 0 .43q0 .27.26.27c.22 0 .45-.18.7-.53V2.1zm2.23 15.55v-.16h-1.11a6.24 6.24 0 0 1 0 .75.47.47 0 0 1-.49.44q-.57 0-.56-.85v-1.07h2.2v-1.26a2.43 2.43 0 0 0-.33-1.42 1.68 1.68 0 0 0-2.61 0 2.37 2.37 0 0 0-.34 1.42v2.12a2.31 2.31 0 0 0 .36 1.42 1.58 1.58 0 0 0 1.33.63 1.52 1.52 0 0 0 1.58-1.31 5.55 5.55 0 0 0-.02-.72zm-1.09-2.37v.56h-1.1v-.56q0-.83.55-.83t.56.83z" fill="#ffc0e9"/></svg>