<svg data-name="Layer 1" xmlns="http://www.w3.org/2000/svg" viewBox="0 0 19.35 15.71"><path d="M19.35 1.86a8.31 8.31 0 01-2 2.05v.52a11.28 11.28 0 01-.47 3.19 11.53 11.53 0 01-1.42 3.05 12 12 0 01-2.26 2.58 10.09 10.09 0 01-3.17 1.79 11.58 11.58 0 01-4 .67A11 11 0 010 13.94a8.38 8.38 0 001 0 7.77 7.77 0 004.92-1.69A4 4 0 012.21 9.5a5 5 0 00.75.06 4.12 4.12 0 001-.13 3.9 3.9 0 01-2.28-1.37 3.83 3.83 0 01-.9-2.52 3.94 3.94 0 001.79.5 4 4 0 01-1.28-1.42A4 4 0 011.35.73 11.24 11.24 0 005 3.66a11 11 0 004.53 1.2 4.33 4.33 0 01-.1-.91 3.82 3.82 0 011.16-2.8 4 4 0 015.7.09 7.77 7.77 0 002.52-1 3.85 3.85 0 01-1.74 2.19 7.89 7.89 0 002.28-.57z" fill="#ffc0e9"/></svg>