<svg id="de8af0e4-61d6-4c7c-a032-543a410dd85d" data-name="Layer 1" xmlns="http://www.w3.org/2000/svg" viewBox="0 0 155.04 22.95"><defs><style>.\32 2fb37a0-c0e9-4ade-846a-892f1202b618{fill:#ffc0e9}</style></defs><title>tcb</title><path class="22fb37a0-c0e9-4ade-846a-892f1202b618" d="M85.87 2.53H91v.62h-2.21v6.57h-.69V3.15h-2.23zM91.68 9.72l2.23-7.19h1l2.31 7.19h-.69l-.69-2.15H93l-.68 2.15zm1.53-2.78h2.46L94.41 3zM102.24 5.93l2 3.79h-.78l-1.82-3.43h-1.27v3.43h-.69v-7.2h.69v3.15h1.3l1.7-3.14h.72zM107.22 2.53v7.19h-.69V2.53zM115.34 2.52v7.2h-.67l-3.61-6v6h-.67v-7.2h.72l3.56 5.93V2.52zM120.71 6.27h2.35V9.4a4.83 4.83 0 0 1-2 .46c-2 0-2.87-1.17-2.87-3.87 0-2.09.72-3.61 2.61-3.61a2 2 0 0 1 2.2 1.75l-.64.16c-.25-.8-.54-1.3-1.57-1.3s-1.88.87-1.88 3c0 1.93.37 3.31 2.18 3.31a3.06 3.06 0 0 0 1.29-.3V6.85h-1.68zM133.62 8.68l.17.64a3.65 3.65 0 0 1-2 .54c-2.24 0-2.67-1.83-2.67-3.69s.41-3.79 2.54-3.79a2 2 0 0 1 2.16 1.75l-.68.17c-.2-.69-.49-1.31-1.5-1.31-1.67 0-1.79 1.83-1.79 3.32 0 1.8.52 2.91 2 2.91a3.06 3.06 0 0 0 1.77-.54zM135.58 9.72l2.23-7.19h1l2.31 7.19h-.69l-.69-2.15h-2.82l-.68 2.15zm1.53-2.78h2.46L138.31 3zM148.12 9.72h-.75l-1.19-3.18h-1.93v3.18h-.68V2.53h2.23c1.36 0 2.28.54 2.28 1.83a2 2 0 0 1-1.23 2zm-2.34-3.8c.89 0 1.59-.46 1.59-1.39s-.55-1.4-1.61-1.4h-1.51v2.79zM150.87 2.53h3.86v.62h-3.17v2.52h2.76v.62h-2.76v2.8h3.3v.63h-4zM86.34 18c0-2.44 1-3.63 2.73-3.63s2.57 1.12 2.57 3.57c0 3-1.19 3.91-2.67 3.91s-2.63-.77-2.63-3.85zM89 15c-1.09 0-2 .76-2 3s.75 3.24 1.91 3.24 1.95-.62 1.95-3.29C90.92 15.66 90.14 15 89 15zM98.47 14.53v.62h-3.33v2.52h2.79v.62h-2.79v3.43h-.69v-7.19zM104.51 21.72v-7.19h2.08c1.37 0 2.19.56 2.19 1.65a1.87 1.87 0 0 1-1.11 1.76 1.64 1.64 0 0 1 1.39 1.66c0 1.36-.93 2.12-2.42 2.12zm.67-6.58v2.56h1.33a1.38 1.38 0 0 0 1.55-1.39c0-.84-.5-1.17-1.59-1.17zm0 3.14v2.83h1.56a1.4 1.4 0 0 0 1.59-1.48c0-.79-.51-1.35-1.55-1.35zM112.36 19.22a3.64 3.64 0 0 0 .16 1.22 1.52 1.52 0 0 0 1.51.75c.88 0 1.35-.25 1.56-.77a4.35 4.35 0 0 0 .14-1.36v-4.53h.69v4.72a5.13 5.13 0 0 1-.12 1.24 2.11 2.11 0 0 1-2.3 1.35c-1.15 0-1.93-.41-2.21-1.2a4.6 4.6 0 0 1-.15-1.4v-4.71h.69zM119.33 20.51a2.62 2.62 0 0 0 1.79.71 1.3 1.3 0 0 0 1.48-1.33c0-1.1-.72-1.33-1.71-1.66s-1.71-.62-1.71-1.95a1.94 1.94 0 0 1 2.15-1.9 1.9 1.9 0 0 1 2.06 1.62l-.63.18a1.39 1.39 0 0 0-1.46-1.13 1.23 1.23 0 0 0-1.37 1.23c0 .93.66 1.13 1.48 1.41s1.94.63 1.94 2.12a2 2 0 0 1-2.25 2 3.13 3.13 0 0 1-2.09-.71zM126.82 14.53v7.19h-.69v-7.19zM134.95 14.52v7.2h-.67l-3.61-6v6H130v-7.2h.72l3.56 5.93v-5.93zM138.13 14.53H142v.62h-3.17v2.52h2.76v.62h-2.76v2.8h3.3v.63h-4zM144.42 20.51a2.62 2.62 0 0 0 1.79.71 1.3 1.3 0 0 0 1.48-1.33c0-1.1-.72-1.33-1.71-1.66s-1.71-.62-1.71-1.95a1.94 1.94 0 0 1 2.15-1.9 1.9 1.9 0 0 1 2.06 1.62l-.63.18a1.39 1.39 0 0 0-1.46-1.13 1.23 1.23 0 0 0-1.39 1.23c0 .93.66 1.13 1.48 1.41s1.94.63 1.94 2.12a2 2 0 0 1-2.25 2 3.13 3.13 0 0 1-2.09-.71zM151 20.51a2.62 2.62 0 0 0 1.79.71 1.3 1.3 0 0 0 1.48-1.33c0-1.1-.72-1.33-1.71-1.66s-1.71-.62-1.71-1.95a1.94 1.94 0 0 1 2.15-1.9 1.9 1.9 0 0 1 2 1.62l-.63.18a1.39 1.39 0 0 0-1.46-1.13 1.23 1.23 0 0 0-1.37 1.23c0 .93.66 1.13 1.48 1.41s1.94.63 1.94 2.12a2 2 0 0 1-2.25 2 3.13 3.13 0 0 1-2.09-.71zM42.51 15.86a9.58 9.58 0 1 1 0-8.77L43.9 5.7a11.48 11.48 0 1 0 0 11.55z"/><path class="22fb37a0-c0e9-4ade-846a-892f1202b618" d="M34 17.33a5.86 5.86 0 1 1 5.86-5.86A5.86 5.86 0 0 1 34 17.33zm0-9.82a4 4 0 1 0 4 4 4 4 0 0 0-4-4zM4.24 21.34v-2h3.22l.07-.16V3.24H2.31l-.86 4.34H0V1.25h17.23v6.33h-1.48l-.87-4.34H9.67v15.95l.06.16h3.18v2zM49.72 21.34v-2h2.7l.06-.16V3.37l-.06-.13h-2.7v-2h8.58c5.11 0 6.85 2 6.85 4.85a4.46 4.46 0 0 1-3.57 4.79v.19a4.53 4.53 0 0 1 4.18 4.76c0 3.34-2.12 5.5-7.14 5.5zm7.07-11.06c4.21 0 6.11-1.06 6.11-3.89 0-2.12-1.45-3.15-4.82-3.15H54.6v7zm1.8 9.06c3.54 0 4.92-1.32 4.92-3.6s-1.35-3.63-6.11-3.63h-2.8v7.23z"/></svg>